<?xml version="1.0" encoding="utf-8"?>
<!-- Generator: Adobe Illustrator 17.0.0, SVG Export Plug-In . SVG Version: 6.00 Build 0)  -->
<!DOCTYPE svg PUBLIC "-//W3C//DTD SVG 1.1//EN" "http://www.w3.org/Graphics/SVG/1.1/DTD/svg11.dtd">
<svg version="1.1" id="Layer_1" xmlns="http://www.w3.org/2000/svg" xmlns:xlink="http://www.w3.org/1999/xlink" x="0px" y="0px"
	 width="1024px" height="768px" viewBox="0 0 1024 768" enable-background="new 0 0 1024 768" xml:space="preserve">
<g>
	<path fill="#E36A01" d="M486.708,772.427c-192.186,0-384.372-0.151-576.557,0.326c-13.426,0.033-17.177-2.545-17.113-16.74
		c0.639-143.584,0.39-287.172,0.39-430.76c13.584,1.374,25.41-2.094,37.467-9.163c11.037-6.471,26.664-9.736,28.279,9.528
		c2.8,33.41,24.162,65.118,9.591,100.127c-0.521,1.252-0.112,2.916-0.045,4.384c0.668,14.479,19.251,38.572,31.092,40.334
		c16.003,2.381,34.119-12.128,39.277-32.315c2.338-9.149,7.041-20.233,4.002-27.739c-9.094-22.463-0.924-41.252,4.998-62.295
		c6.742-23.958,16.598-38.44,43.23-36.444c3.314,0.248,8.187-0.966,10.017-3.313c14.177-18.182,37.176-14.732,55.212-23.227
		c-8.506-13.701-2.731-29.454-6.3-43.865c4.42-0.046,8.84-0.092,13.259-0.137c5.573,17.735,0.456,36.535,5.918,54.28
		c-1.951-18.094,12.374-37.813-5.926-54.274c7.78-7.938,17.65-3.231,26.55-4.388c-2.869,5.073-13.897,7.987-10.796,12.377
		c12.465,17.65,3.377,34.556-0.807,52.034c25.698-3.68,39.457-20.22,51.805-38.502c3.055-4.523,6.317-8.38,12.386-7.271
		c5.969,1.09,8.467,5.463,9.123,11.017c2.132,18.074,11.019,34.546,10.126,53.763c-0.423,9.109-3.087,21.075,3.888,29.293
		c14.166,16.688,10.5,30.493-4.3,44.026c-5.287,4.834-12.349,10.249-7.034,18.646c5.318,8.401,13.97,7.034,21.874,4.309
		c34.72-11.969,35.144-12.253,49.413,21.779c4.539,10.824,14.741,15.885,19.485,8.397c13.677-21.589,19.138-15.563,26.181,3.494
		c1.709,4.625,8.566,7.826,13.637,10.632c11.606,6.422,20.626,13.769,13.027,28.956c2.983,0,3.889,0.281,4.28-0.049
		c1.644-1.386,3.517-2.716,4.622-4.492c14.073-22.624,29.614-3.342,43.711-0.602c15.981,3.107,10.535,18.642,8.545,27.691
		c-4.065,18.485-9.461,37.487-18.694,53.793c-8.79,15.524-7.912,27.436,1.992,40.421c9.149,11.995,15.784,23.442,9.764,40.267
		c-4.338,12.122-2.983,25.693,16.92,24.297c7.611-0.534,13.21,4.711,12.598,12.368c-1.336,16.729-2.2,32.63,12.602,45.001
		c1.776,1.485,0.687,9.359-1.618,12.229C484.907,750.417,487.113,761.554,486.708,772.427z"/>
	<path fill="#CB4F01" d="M163.507,241.128c-4.42,0.046-8.84,0.092-13.26,0.136c-5.861-3.245-12.079-5.533-18.827-4.554
		c-41.765,6.062-81.724-12.002-123.276-9.221c-4.037,0.27-8.272-2.41-12.415-3.72c5.229-8.688,10.787-13.788,22.957-10.984
		c12.345,2.843,25.681,1.388,38.582,1.815l-0.054-0.054c0.454,8.854,6.72,8.407,12.742,7.624c6.496-0.845,12.918-2.262,19.373-3.425
		c43.323-7.807,88.599,17.18,130.963-7.725c0.916-0.538,3.178,0.041,4.11,0.879c12.615,11.341,25.978,4.976,39.624,2.668
		c8.495-1.437,17.131-3.899,25.449,5.862c7.69,9.025,19.207,7.193,27.49-3.535c11.04-14.3,24.994-13.637,41.891-11.137
		c23.013,3.405,43.534,16.739,68.59,12.966c26.419-3.978,53.563-4.508,80.367-4.239c37.132,0.372,74.176,0.416,110.717-6.564
		c5.273-1.007,9.194-2.01,13.524,0.796c10.227,6.628,20.506,5.607,31.143,0.968c8.307-3.622,16.63-4.633,25.689-1.106
		c8.516,3.315,18.744,3.344,25.491-2.419c13.263-11.328,25.281-6.376,37.97-0.436c0.324,3.829,1.311,7.247,5.919,7.604
		c0.919,0.071,1.926-0.989,2.892-1.528c-2.93-2.031-5.86-4.063-8.791-6.094c4.367-5.071,10.841-6.259,15.368-2.922
		c12.306,9.071,24.942,4.807,37.693,3.019c0.547,0.319,1.094,0.639,1.64,0.958c-0.494-0.368-0.988-0.737-1.482-1.105
		c22.605,0.786,45.263,0.86,67.797,2.576c19.232,1.464,37.7,1.831,56.198-5.778c11.412-4.694,24.126-8.612,36.945-3.538
		c14.917,5.904,29.932,10.881,45.699,3.504c7.539-3.528,15.493-7.164,23.33-4.175c24.587,9.379,49.646,11.432,75.426,7.469
		c0,183.74-0.177,367.48,0.371,551.218c0.039,13.209-2.65,15.972-15.87,15.879c-99.613-0.699-199.233-0.382-298.851-0.382
		c-0.641-20.911,9.915-43.265-10.284-61.572c-6.527-5.916-0.629-13.208,4.543-19.179c21.306-24.596,19.627-33.705-8.59-50.403
		c-19.985-11.827-25.478-62.931-7.05-76.855c14.997-11.332,15.3-24.052,8.469-38.711c-5.718-12.272-6.57-20.774,10.051-23.833
		c16.097-2.962,10.923-16.699,11.589-26.947c0.645-9.924-0.453-17.679-13.086-21.694c-22.731-7.224-37.854-29.998-41.862-47.617
		c-6.154-27.051-7.611-55.493-14.463-83.392c-4.859-19.784-12.129-31.453-30.189-38.416c-9.503-3.663-23.761-6.833-25.109-16.311
		c-4.98-35.007-27.774-24.664-48.534-22.095c-7.237,0.895-16.429,2.653-21.759-0.701c-19.184-12.075-39.899-6.309-59.957-8.023
		c-27.696-2.367-55.295,1.186-83.053,0.65c-92.402-1.787-184.861-0.619-277.298-0.583c-8.901,1.158-18.771-3.55-26.55,4.388
		C163.499,241.134,163.507,241.128,163.507,241.128z"/>
	<path fill="#DF6401" d="M190.05,236.746c92.437-0.035,184.896-1.203,277.298,0.583c27.758,0.537,55.357-3.017,83.053-0.65
		c20.059,1.714,40.774-4.052,59.957,8.023c5.329,3.355,14.522,1.596,21.759,0.701c20.76-2.568,43.554-12.911,48.534,22.095
		c1.348,9.478,15.606,12.648,25.109,16.311c18.06,6.963,25.33,18.632,30.189,38.416c6.852,27.899,8.309,56.34,14.463,83.392
		c4.008,17.62,19.131,40.394,41.862,47.617c12.633,4.015,13.732,11.77,13.086,21.694c-0.666,10.248,4.508,23.985-11.589,26.947
		c-16.621,3.058-15.769,11.561-10.051,23.833c6.831,14.659,6.528,27.379-8.469,38.711c-18.428,13.924-12.936,65.028,7.05,76.855
		c28.217,16.698,29.896,25.807,8.59,50.403c-5.172,5.971-11.07,13.263-4.543,19.179c20.199,18.306,9.643,40.66,10.284,61.572
		c-103.307,0-206.615,0-309.923,0c0.405-10.874-1.801-22.01,6.071-31.809c2.305-2.869,3.395-10.744,1.618-12.229
		c-14.802-12.371-13.938-28.272-12.602-45.001c0.612-7.658-4.987-12.902-12.598-12.368c-19.903,1.396-21.257-12.176-16.92-24.297
		c6.02-16.825-0.615-28.271-9.764-40.267c-9.904-12.985-10.782-24.898-1.992-40.421c9.233-16.306,14.63-35.307,18.694-53.793
		c1.99-9.049,7.436-24.584-8.545-27.691c-14.097-2.741-29.638-22.022-43.711,0.602c-1.105,1.776-2.978,3.106-4.622,4.492
		c-0.391,0.33-1.298,0.049-4.28,0.049c7.599-15.187-1.421-22.534-13.027-28.956c-5.071-2.806-11.928-6.008-13.637-10.632
		c-7.043-19.057-12.504-25.083-26.181-3.494c-4.743,7.488-14.946,2.427-19.485-8.397c-14.269-34.032-14.693-33.748-49.413-21.779
		c-7.904,2.725-16.556,4.092-21.874-4.309c-5.315-8.396,1.747-13.812,7.034-18.646c14.801-13.532,18.466-27.337,4.3-44.026
		c-6.976-8.218-4.312-20.183-3.888-29.293c0.893-19.217-7.994-35.689-10.126-53.763c-0.655-5.554-3.154-9.927-9.123-11.017
		c-6.069-1.109-9.331,2.748-12.386,7.271c-12.348,18.281-26.107,34.822-51.805,38.502c4.185-17.478,13.272-34.384,0.807-52.034
		C176.153,244.732,187.181,241.819,190.05,236.746z"/>
	<path fill="#FFFFFF" d="M-106.573,117.162c0-46.488,0.623-92.99-0.395-139.457c-0.29-13.257,2.686-15.897,15.892-15.871
		c251.627,0.497,503.255,0.367,754.882,0.367c143.893,0,287.786,0.224,431.676-0.375c13.212-0.055,16.369,2.599,15.891,15.885
		c-1.194,33.163-0.393,66.398-0.393,99.604c-22.593,4.808-44.641,13.8-68.605,6.677c-6.377-1.896-9.479,5.394-9.596,9.822
		c-0.424,16.031-9.391,16.345-21.955,15.114c-11.994-1.176-23.499-1.015-34.188-8.645c-3.899-2.783-14.804-9.631-16.471-1.602
		c-2.311,11.127-25.737,6.684-16.066,24.295c0.524,0.954-6.848,3.627-9.569,1.369c-5.916-4.908-14.801-10.393-15.632-16.563
		c-3.794-28.173-17.223-18.428-30.846-9.157c-5.236,3.563-10.835,7.494-15.263,0.998c-10.947-16.059-25.018-7.627-35.677-2.967
		c-30.452,13.313-60.222,11.695-90.477,1.365c-3.674-1.254-8.809-3.319-9.466,0.452c-4.665,26.792-16.668,18.837-30.212,7.254
		c-0.98-0.839-4.134,1.367-6.226,1.247c-22.74-1.303-42.259,6.693-60.483,19.614c-4.51,3.198-9.372,8.545-16.698,0.891
		c-14.547-15.198-29.726-14.293-46.619-0.299c-2.959,2.451-8.229,2.793-12.462,2.9c-13.724,0.346-27.463,0.129-41.665,0.129
		c1.456-6.041,11.073-4.136,8.087-13.227c-28.1-2.567-45.041,29.82-73.78,25.452c-3.913,0.481-7.403-0.252-10.022-3.488
		c0.715-12.08-4.989-17.843-17.07-17.539c-8.132,0.205-20.664,1.317-22.084-5.738c-2.983-14.826-12.955-10.725-21.438-12.292
		c-15.96-2.948-31.85-1.803-47.48,1.595c-19.439,4.226-42.051,12.287-57.881,2.918c-16.624-9.839-23.976-4.191-33.478,5.001
		c-7.281,7.042-15.514,11.091-25.142,12.475c-8.174,1.174-15.599-0.556-14.648-11.018c2.046-22.504-11.547-20.405-29.443-17.615
		c11.655,7.223,21.459,13.436,20.023,26.313c-0.794,7.118-7.387,10.262-12.892,9.619c-12.726-1.486-24.969-5.183-26.901-21.134
		c-0.087-0.718-0.37-1.428-0.652-2.103c-2.655-6.348-8.31-6.238-13.043-4.473c-5.135,1.914-12.412,1.131-14.61,8.106
		c-6.73,21.353-9.307,19.978-29.177,10.026c-29.282-14.666-61.693-16.929-94.634-15.604c-13.635,0.548-19.929,20.376-32.236,12.558
		c-13.544-8.605-27.888-12.28-42.502-16.884c-8.831-2.782-16.277-7.48-21.591,5.092C-92.522,114.719-99.709,116.519-106.573,117.162
		z"/>
	<path fill="#C18E5C" d="M447.091,138.947c2.619,3.236,6.109,3.969,10.009,3.502c-5.514,9.584-1.702,21.462,6.335,21.045
		c16.189-0.841,29.043,10.668,45.065,8.255c7.665-1.154,11.657-10.986,21.418-6.804c19.094,8.18,39.943,7.814,60.08,8.377
		c7.835,0.219,7.345,15.867,15.519,7.071c10.84-11.666,34.908,5.401,39.702-19.303c0.553-2.849,10.072-3.627,16.431-1.909
		c6.193,1.673,13.069,1.11,19.639,1.024c9.247-0.121,23.54-14.813,24.092,9.377c0.095,4.16,10.956,1.752,11.328,1.195
		c10.048-15.013,22.547-7.465,35.136-5.262c10.039,1.757,19.662-0.177,28.92-7.236c15.34-11.698,37.273-17.697,51.547-8.084
		c15.818,10.653,29.644,4.347,44.099,6.699c0.491,0.356,0.983,0.712,1.474,1.068c-0.553-0.295-1.107-0.59-1.66-0.885
		c10.192-16.443,26.827-11.09,40.396-9.576c15.362,1.714,28.918,0.139,43.959-3.32c16.591-3.815,35.732-18.908,51.7-3.014
		c10.874,10.823,23.434,14.859,33.656,9.52c16.949-8.851,27.971,9.611,42.868,5.196c1.386-0.411,6.836,5.447,6.473,7.782
		c-2.37,15.225,9.378,9.084,15.704,11.053c0,4.427,0,8.855,0,13.282c-3.288,1.968-8.698,1.289-9.01,6.54
		c-0.035,0.591,5.863,1.535,9.01,2.315c0,2.952,0,5.903,0,8.855c-25.78,3.963-50.839,1.91-75.426-7.469
		c-7.837-2.989-15.79,0.647-23.33,4.175c-15.767,7.378-30.782,2.4-45.699-3.504c-12.82-5.074-25.533-1.157-36.945,3.538
		c-18.498,7.609-36.966,7.242-56.198,5.778c-22.534-1.716-45.193-1.79-67.797-2.576l-0.159,0.148
		c-12.751,1.788-25.387,6.052-37.693-3.019c-4.527-3.337-11.001-2.149-15.368,2.922l-0.02,0.018
		c-12.689-5.94-24.707-10.892-37.97,0.436c-6.748,5.763-16.975,5.734-25.491,2.419c-9.059-3.527-17.381-2.516-25.689,1.106
		c-10.637,4.639-20.915,5.66-31.143-0.968c-4.329-2.806-8.25-1.803-13.524-0.796c-36.54,6.98-73.585,6.936-110.717,6.564
		c-26.804-0.269-53.948,0.261-80.367,4.239c-25.055,3.773-45.577-9.561-68.59-12.966c-16.897-2.5-30.852-3.163-41.891,11.137
		c-8.282,10.728-19.8,12.56-27.49,3.535c-8.317-9.761-16.954-7.299-25.449-5.862c-13.646,2.308-27.009,8.673-39.624-2.668
		c-0.932-0.838-3.194-1.418-4.11-0.879c-42.364,24.905-87.641-0.082-130.963,7.725c-6.455,1.163-12.877,2.58-19.373,3.425
		c-6.021,0.783-12.287,1.23-12.742-7.624c0.309-0.568,0.617-1.135,0.926-1.703c-0.29,0.586-0.581,1.171-0.871,1.757
		c-12.902-0.427-26.237,1.029-38.582-1.815c-12.17-2.803-17.728,2.296-22.961,10.981c-8.994-2.548-17.945,6.428-26.949,0.087
		c-17.815-9.611-35.614-9.024-53.398,0.089c-7.181-5.92-14.661,0.779-21.951-0.52c0-19.186,0-38.371,0-57.557
		c13.832-13.924,37.086,11.459,49.077-11.703c0.936-1.807,6.142-0.186,4.286,3.845c-4.387,9.524,3.569,9.279,7.258,7.562
		c23.698-11.028,50.721-5.281,74.616-15.667c8.677-3.771,19.652-0.694,25.505,6.099c8.377,9.722,8.378,11.736,15.292,3.015
		c5.237-6.606,13.427-9.463,16.593-5.726c13.933,16.451,34.385,10.125,51.049,16.507c14.41,5.518,23.333,1.344,35.266-8.535
		c1.002-0.829,2.442-1.549,3.701-1.586c24.148-0.723,48.452-3.054,72.355-0.92c7.111,0.635,11.716,2.703,15.615-3.565
		c3.149-5.063,7.225-6.57,12.807-6.609c24.998-0.175,49.796-0.715,71.8-15.674c6.98-4.745,4.429,4.352,6.59,6.119
		c9.546,7.805,18.949,24.919,32.813,6.749c10.351-13.567,22.764-6.406,33.715-5.093
		C430.759,141.761,438.832,142.941,447.091,138.947z M714.541,196.409c-9.502-8.751-17.344-9.446-26.141,0.153
		C696.781,202.684,704.41,202.208,714.541,196.409z M696.483,172.409c0.524-4.152-1.269-5.407-3.601-5.576
		c-4.382-0.318-6.399,2.655-7.659,6.307c-0.891,2.584,0.083,4.733,2.78,3.876C691.266,175.98,694.142,173.734,696.483,172.409z
		 M627.272,188.652c-0.155-0.592-0.31-1.183-0.466-1.775c-0.473,0.149-1.335,0.271-1.348,0.453c-0.04,0.577,0.236,1.177,0.389,1.768
		C626.323,188.95,626.798,188.801,627.272,188.652z"/>
	<path fill="#DECDB3" d="M876.41,156.894c-14.456-2.352-28.282,3.954-44.099-6.699c-14.273-9.613-36.207-3.614-51.547,8.084
		c-9.257,7.06-18.881,8.993-28.92,7.236c-12.59-2.203-25.089-9.751-35.136,5.262c-0.373,0.557-11.234,2.965-11.328-1.195
		c-0.552-24.19-14.845-9.498-24.092-9.377c-6.57,0.086-13.446,0.649-19.639-1.024c-6.359-1.718-15.878-0.94-16.431,1.909
		c-4.794,24.704-28.861,7.637-39.702,19.303c-8.173,8.796-7.684-6.852-15.519-7.071c-20.137-0.563-40.986-0.197-60.08-8.377
		c-9.76-4.182-13.752,5.65-21.418,6.804c-16.022,2.412-28.876-9.096-45.065-8.255c-8.037,0.418-11.849-11.46-6.335-21.045
		c28.752,4.355,45.693-28.032,73.793-25.465c2.987,9.091-6.631,7.186-8.087,13.227c14.202,0,27.941,0.217,41.665-0.129
		c4.233-0.107,9.503-0.449,12.462-2.9c16.893-13.994,32.072-14.898,46.619,0.299c7.325,7.653,12.187,2.306,16.698-0.891
		c18.225-12.92,37.743-20.917,60.483-19.614c2.091,0.12,5.245-2.086,6.226-1.247c13.544,11.584,25.547,19.538,30.212-7.254
		c0.657-3.771,5.792-1.706,9.466-0.452c30.254,10.329,60.024,11.948,90.477-1.365c10.658-4.66,24.73-13.092,35.677,2.967
		c4.428,6.496,10.027,2.565,15.263-0.998c13.623-9.272,27.052-19.017,30.846,9.157c0.831,6.17,9.716,11.654,15.632,16.563
		c2.721,2.257,10.092-0.416,9.569-1.369c-9.671-17.612,13.756-13.169,16.066-24.295c1.667-8.029,12.572-1.181,16.471,1.602
		c10.689,7.63,22.194,7.47,34.188,8.645c12.564,1.231,21.531,0.917,21.955-15.114c0.117-4.429,3.218-11.718,9.596-9.822
		c23.964,7.123,46.012-1.868,68.605-6.677c0,32.468,0,64.936,0,97.404c-6.326-1.969-18.074,4.172-15.704-11.053
		c0.363-2.336-5.087-8.193-6.473-7.782c-14.897,4.415-25.919-14.047-42.868-5.196c-10.222,5.338-22.782,1.303-33.656-9.52
		c-15.968-15.894-35.109-0.801-51.7,3.014c-15.041,3.459-28.597,5.034-43.959,3.32c-13.569-1.514-30.204-6.868-40.396,9.576
		L876.41,156.894z M629.215,169.473c0.997-1.337,2.508-2.741,3.157-4.469c0.392-1.043-0.553-2.59-0.897-3.91
		c-1.48,1.005-3.382,1.718-4.333,3.09C625.957,165.894,625.589,168.137,629.215,169.473z M550.846,161.516
		c-1.163,0.701-2.28,1.375-3.398,2.049c1.128,0.653,2.255,1.815,3.383,1.817c1.13,0.002,2.261-1.156,3.392-1.806
		C553.112,162.898,552,162.22,550.846,161.516z"/>
	<path fill="#DF6401" d="M-31.224,223.853c9.003,6.341,17.955-2.635,26.949-0.087c4.146,1.314,8.381,3.994,12.418,3.724
		c41.552-2.781,81.511,15.283,123.276,9.221c6.749-0.98,12.966,1.309,18.827,4.554c3.57,14.412-2.206,30.165,6.3,43.866
		c-18.036,8.495-41.035,5.046-55.212,23.227c-1.83,2.346-6.702,3.561-10.017,3.313c-26.632-1.996-36.488,12.486-43.23,36.444
		c-5.922,21.044-14.092,39.832-4.998,62.295c3.039,7.506-1.664,18.59-4.002,27.739c-5.158,20.187-23.274,34.696-39.277,32.315
		c-11.84-1.762-30.424-25.854-31.092-40.334c-0.068-1.468-0.476-3.132,0.045-4.384c14.571-35.009-6.791-66.716-9.591-100.127
		c-1.615-19.264-17.241-15.999-28.279-9.528c-12.057,7.068-23.883,10.537-37.467,9.163c0-33.944,0-67.888,0-101.832
		c7.29,1.299,14.77-5.4,21.953,0.517C-66.793,241.267-49.013,229.674-31.224,223.853z"/>
	<path fill="#DECDB3" d="M447.091,138.947c-8.259,3.994-16.332,2.814-25.325,1.735c-10.951-1.313-23.363-8.473-33.715,5.093
		c-13.864,18.17-23.267,1.056-32.813-6.749c-2.161-1.767,0.39-10.864-6.59-6.119c-22.004,14.958-46.802,15.499-71.8,15.674
		c-5.582,0.039-9.658,1.546-12.807,6.609c-3.899,6.268-8.504,4.2-15.615,3.565c-23.903-2.134-48.207,0.197-72.355,0.92
		c-1.259,0.038-2.699,0.757-3.701,1.586c-11.933,9.879-20.856,14.053-35.266,8.535c-16.664-6.381-37.116-0.056-51.049-16.507
		c-3.166-3.738-11.356-0.88-16.593,5.726c-6.914,8.721-6.916,6.707-15.292-3.015c-5.853-6.793-16.828-9.87-25.505-6.099
		c-23.895,10.386-50.918,4.639-74.616,15.667c-3.689,1.717-11.645,1.962-7.258-7.562c1.856-4.031-3.35-5.652-4.286-3.845
		c-11.991,23.162-35.245-2.222-49.077,11.703c0-16.234,0-32.468,0-48.702c6.863-0.644,14.051-2.443,16.785-8.912
		c5.315-12.572,12.76-7.875,21.591-5.092c14.614,4.604,28.958,8.28,42.502,16.884c12.306,7.819,18.601-12.009,32.236-12.558
		c32.942-1.325,65.352,0.939,94.634,15.604c19.87,9.952,22.447,11.327,29.177-10.026c2.199-6.976,9.476-6.192,14.61-8.106
		c4.733-1.765,10.388-1.875,13.043,4.473c0.283,0.676,0.565,1.386,0.652,2.103c1.931,15.952,14.174,19.649,26.901,21.134
		c5.505,0.643,12.099-2.501,12.892-9.619c1.436-12.876-8.368-19.09-20.023-26.313c17.896-2.79,31.489-4.889,29.443,17.615
		c-0.951,10.461,6.474,12.192,14.648,11.018c9.628-1.383,17.861-5.433,25.142-12.475c9.503-9.191,16.854-14.84,33.478-5.001
		c15.83,9.369,38.441,1.308,57.881-2.918c15.63-3.398,31.52-4.543,47.48-1.595c8.483,1.567,18.455-2.535,21.438,12.292
		c1.419,7.056,13.951,5.943,22.084,5.738C442.102,121.104,447.805,126.867,447.091,138.947z"/>
	<path fill="#CB4F01" d="M1110.981,196.857c-3.147-0.78-9.045-1.724-9.01-2.315c0.312-5.251,5.722-4.572,9.01-6.54
		C1110.981,190.954,1110.981,193.905,1110.981,196.857z"/>
	<path fill="#CB4F01" d="M163.499,241.134c18.299,16.462,3.975,36.18,5.926,54.274c-5.462-17.745-0.346-36.546-5.918-54.28
		C163.507,241.128,163.499,241.134,163.499,241.134z"/>
	<path fill="#C18E5C" d="M752.366,205.704c2.93,2.031,5.86,4.063,8.791,6.094c-0.966,0.539-1.973,1.599-2.892,1.528
		c-4.607-0.357-5.594-3.775-5.919-7.604C752.346,205.722,752.366,205.704,752.366,205.704z"/>
	<path fill="#C18E5C" d="M805.586,205.653c0.494,0.368,0.988,0.737,1.482,1.105c-0.547-0.319-1.094-0.639-1.64-0.958
		C805.427,205.801,805.586,205.653,805.586,205.653z"/>
	<path fill="#CB4F01" d="M-31.224,223.853c-17.789,5.821-35.569,17.414-53.396,0.086C-66.838,214.829-49.039,214.242-31.224,223.853
		z"/>
	<path fill="#CB4F01" d="M714.541,196.409c-10.131,5.799-17.76,6.275-26.141,0.153C697.197,186.963,705.04,187.658,714.541,196.409z
		"/>
	<path fill="#DECDB3" d="M696.483,172.409c-2.341,1.325-5.218,3.572-8.479,4.608c-2.697,0.857-3.671-1.293-2.78-3.876
		c1.26-3.652,3.276-6.624,7.659-6.307C695.214,167.002,697.007,168.257,696.483,172.409z"/>
	<path fill="#DECDB3" d="M627.272,188.652c-0.475,0.149-0.95,0.298-1.424,0.446c-0.154-0.591-0.43-1.191-0.389-1.768
		c0.013-0.182,0.875-0.304,1.348-0.453C626.962,187.469,627.117,188.061,627.272,188.652z"/>
	<path fill="#DECDB3" d="M876.224,157.078c0.553,0.295,1.107,0.59,1.66,0.885c-0.491-0.356-0.983-0.712-1.474-1.068
		C876.41,156.894,876.224,157.078,876.224,157.078z"/>
	<path fill="#CB4F01" d="M57.268,214.599c0.29-0.586,0.581-1.171,0.871-1.757c-0.309,0.568-0.617,1.135-0.926,1.703
		C57.214,214.545,57.268,214.599,57.268,214.599z"/>
	<path fill="#C18E5C" d="M629.215,169.473c-3.626-1.336-3.258-3.58-2.073-5.289c0.951-1.372,2.853-2.085,4.333-3.09
		c0.344,1.32,1.289,2.866,0.897,3.91C631.723,166.732,630.212,168.136,629.215,169.473z"/>
	<path fill="#C18E5C" d="M550.846,161.516c1.154,0.704,2.266,1.382,3.377,2.06c-1.131,0.65-2.262,1.807-3.392,1.806
		c-1.129-0.002-2.255-1.164-3.383-1.817C548.566,162.891,549.684,162.217,550.846,161.516z"/>
</g>
</svg>
